<svg xmlns="http://www.w3.org/2000/svg" viewBox="0 0 1000.18 106.05"><defs><style>.cls-1,.cls-2{fill:#231f20;opacity:0.97;}.cls-1{stroke:#231f20;stroke-miterlimit:10;stroke-width:7px;}</style></defs><title>Clean_track_name</title><g id="Layer_2" data-name="Layer 2"><g id="Layer_5" data-name="Layer 5"><path class="cls-1" d="M13,80.89A33.94,33.94,0,0,0,25.24,93,32.35,32.35,0,0,0,41.93,97.5a37.51,37.51,0,0,0,16.75-3.67A29.16,29.16,0,0,0,70.46,83.61a27.1,27.1,0,0,0,4.43-14.72H79.8a30.81,30.81,0,0,1-5,17.1A34.65,34.65,0,0,1,61.2,98.12a41.7,41.7,0,0,1-19.27,4.43,37.39,37.39,0,0,1-19.21-5.18,38.52,38.52,0,0,1-14-14A37.13,37.13,0,0,1,3.5,64.27V41.93A37.47,37.47,0,0,1,8.6,22.79a38.44,38.44,0,0,1,13.89-14A37.07,37.07,0,0,1,41.64,3.64,41.46,41.46,0,0,1,60.78,8.07,35.17,35.17,0,0,1,74.47,20.19a30.55,30.55,0,0,1,5,17.1h-4.9a26.75,26.75,0,0,0-4.5-14.72A29.73,29.73,0,0,0,58.33,12.36,37.14,37.14,0,0,0,41.64,8.68,32.1,32.1,0,0,0,25,13.18,33.64,33.64,0,0,0,12.9,25.31,32.12,32.12,0,0,0,8.4,41.93V64.27A31.84,31.84,0,0,0,13,80.89Z"/><path class="cls-1" d="M112.77,100.49l0-94.82h5l0,89.78h66.07v5Z"/><path class="cls-1" d="M210.43,5.66l66.75,0v5l-61.71,0V49.11h53.68v5H215.48V95.43H277.2v5H210.44Z"/><path class="cls-1" d="M341.62,5.63h5.31l39,94.81h-5.45L367.65,69.11H320.92L308,100.46h-5.31ZM323,64.21h42.65l-21.4-52Z"/><path class="cls-1" d="M590.65,5.59v5H554.83v89.78h-4.91V10.64H514.09v-5Z"/><path class="cls-1" d="M680.9,20a30.61,30.61,0,0,1,4.7,16.62,31.21,31.21,0,0,1-23,30.11l24.12,33.65h-6L657.41,67.7l-4.36.14H618.86V100.4h-5V5.59h36.1a60.61,60.61,0,0,1,10.28.75A31.63,31.63,0,0,1,668,8.71,29.63,29.63,0,0,1,680.9,20ZM654.41,62.8a25.24,25.24,0,0,0,13.08-3.55A26.67,26.67,0,0,0,677,49.71a25.12,25.12,0,0,0,3.53-13.07,25.73,25.73,0,0,0-4.15-14.31,25.11,25.11,0,0,0-11.52-9.53q-5.31-2.18-15-2.18H618.85V62.8Z"/><path class="cls-1" d="M746,5.56h5.31l39,94.81h-5.45L772,69H725.25l-12.93,31.34H707ZM727.3,64.14h42.64l-21.4-52Z"/><path class="cls-1" d="M821.64,80.75A34,34,0,0,0,833.9,92.87a32.49,32.49,0,0,0,16.69,4.49,37.53,37.53,0,0,0,16.76-3.67,29.18,29.18,0,0,0,11.78-10.23,27,27,0,0,0,4.42-14.71h4.91a30.91,30.91,0,0,1-5,17.1A34.62,34.62,0,0,1,869.87,98a41.6,41.6,0,0,1-19.28,4.44,37.38,37.38,0,0,1-19.2-5.18,38.59,38.59,0,0,1-14-14,37.06,37.06,0,0,1-5.18-19.14V41.79a37.47,37.47,0,0,1,5.1-19.14,38.36,38.36,0,0,1,13.89-14A37.07,37.07,0,0,1,850.31,3.5a41.46,41.46,0,0,1,19.14,4.43,35.17,35.17,0,0,1,13.69,12.12,30.54,30.54,0,0,1,5,17.09h-4.9a26.75,26.75,0,0,0-4.5-14.71A29.73,29.73,0,0,0,867,12.22a37.17,37.17,0,0,0-16.69-3.68A32.1,32.1,0,0,0,833.69,13a33.74,33.74,0,0,0-12.13,12.13,32.21,32.21,0,0,0-4.49,16.62V64.13A31.84,31.84,0,0,0,821.64,80.75Z"/><path class="cls-1" d="M920.33,5.53V69.7L984.63,5.52h7.08L952.07,45l39.52,55.31h-6L948.53,48.58l-28.19,28.2v23.57H915.3l0-94.82Z"/><polygon class="cls-2" points="478.86 2.57 478.88 87.17 419.14 2.58 407.2 2.58 407.22 104.1 419.16 104.1 419.15 19.5 478.88 104.09 490.82 104.08 490.8 2.57 478.86 2.57"/></g></g></svg>