<svg xmlns="http://www.w3.org/2000/svg" viewBox="0 0 560.85 582.33"><defs><style>.cls-1{fill:#128a7f;}.cls-2{fill:#52b963;}.cls-3{fill:#065e56;}</style></defs><title>Clean_track_emblem</title><g id="Layer_2" data-name="Layer 2"><g id="Layer_5" data-name="Layer 5"><path class="cls-1" d="M217.59,478.44c.45,6.31,1.11,12.58,1.92,18.8q-4.94-4.38-10-8.55c-1.54-1.28-3.1-2.53-4.68-3.78C176.68,380.66,100.41,295.85,1,255.25A268,268,0,0,1,38.43,143.07,349.22,349.22,0,0,1,261.05,284.38a340.67,340.67,0,0,0-44.4,168.7Q216.65,465.89,217.59,478.44Z"/><path class="cls-2" d="M171.09,455.73A347.24,347.24,0,0,0,32.88,406.61,267.7,267.7,0,0,1,0,290.74,348.68,348.68,0,0,1,171.09,455.73Z"/><path class="cls-1" d="M198.89,549.18a274.65,274.65,0,0,1-166-131.56A347.24,347.24,0,0,1,171.1,466.74,338.9,338.9,0,0,1,198.89,549.18Z"/><path class="cls-3" d="M501.79,117.24A275.07,275.07,0,0,0,280.4,0h0A275,275,0,0,0,59,117.32,349.35,349.35,0,0,1,280.4,255.21v.07l0,0,0,0v-.07A349.33,349.33,0,0,1,501.79,117.24Z"/><path class="cls-1" d="M559.85,255.15C460.44,295.79,384.2,380.63,356.11,484.88q-1.78,1.39-3.51,2.83-5.69,4.64-11.19,9.51,1.29-9.71,2-19.56.9-12.18.89-24.6a340.49,340.49,0,0,0-44.47-168.68A349.21,349.21,0,0,1,522.37,143,268.13,268.13,0,0,1,559.85,255.15Z"/><path class="cls-1" d="M330.63,475c0,.35,0,.71,0,1.06-11.17,1.43-24.15,9.12-34.42,21.52-8.36,10.08-13.29,21.27-14.43,31.09v0c-.17.29-.35.58-.54.86-.17-.26-.34-.53-.52-.79-1.11-9.83-6-21.09-14.43-31.2C256,485.13,243,477.44,231.79,476c0-.36,0-.72,0-1-.16-4.34-.19-8.73-.15-13.13,0-1.65,0-3.32.06-5,.08-4.39.27-8.74.52-13.14a340.78,340.78,0,0,1,48.94-157.25v-.08s0,0,0,.05a.43.43,0,0,0,0-.05v.08a340.65,340.65,0,0,1,49,157.23c.26,4.4.44,8.75.52,13.14.06,1.63.08,3.3.07,4.95C330.81,466.23,330.78,470.62,330.63,475Z"/><path class="cls-2" d="M389.81,455.69A347.42,347.42,0,0,1,528,406.52a267.66,267.66,0,0,0,32.84-115.88A348.74,348.74,0,0,0,389.81,455.69Z"/><path class="cls-1" d="M362.05,549.15A274.61,274.61,0,0,0,528,417.53,347.32,347.32,0,0,0,389.82,466.7,338.51,338.51,0,0,0,362.05,549.15Z"/><path class="cls-1" d="M288.23,558.23a43.34,43.34,0,0,1-7,24.1,43.28,43.28,0,0,1-7-24.1,45.14,45.14,0,0,1,.89-9,41.46,41.46,0,0,1,5.82-14.6c.09-.15.2-.32.31-.47a5.46,5.46,0,0,1,.34.55v0a41,41,0,0,1,5.78,14.43v0A45.72,45.72,0,0,1,288.23,558.23Z"/></g></g></svg>