<svg xmlns="http://www.w3.org/2000/svg" viewBox="0 0 354.48 369.72"><defs><style>.cls-1{fill:#085d56;}.cls-2{fill:#138b7f;}.cls-3{fill:#24d467;}</style></defs><title>only logo</title><g id="Layer_2" data-name="Layer 2"><g id="Layer_2-2" data-name="Layer 2"><path class="cls-1" d="M314.71,68.11a223.49,223.49,0,0,0-141,98.49A223.61,223.61,0,0,0,30.88,76a176,176,0,0,1,283.83-7.87Z"/><path class="cls-2" d="M138.83,286.46a222.93,222.93,0,0,0,1.83,28.6c-3.06-2.75-6.2-5.42-9.41-8A223.91,223.91,0,0,0,.64,158.3a175,175,0,0,1,24-72.65A223.57,223.57,0,0,1,167.31,177.2,222.54,222.54,0,0,0,138.83,286.46Z"/><path class="cls-3" d="M207.78,305.48c0,3.28-.08,6.56-.22,9.82,0,.1-.05.19-.07.29-9.53-3.38-22,5.25-28.27,19.73-6.3-12.7-18.21-19.69-27.43-15.72a11.24,11.24,0,0,0-1.54.81c-.17-1.19-.31-2.37-.46-3.59s-.26-2.4-.38-3.61c0-.57-.12-1.19-.16-1.78-.26-2.81-.45-5.64-.6-8.49-.07-1.07-.12-2.14-.14-3.21-.12-2.83-.17-5.66-.17-8.51a222.35,222.35,0,0,1,25.61-104A222.23,222.23,0,0,1,207.78,305.48Z"/><path class="cls-3" d="M109.64,284.61a221.14,221.14,0,0,0-88.58-31.83A174.74,174.74,0,0,1,0,177.73,224.57,224.57,0,0,1,109.64,284.61Z"/><path class="cls-2" d="M127.45,345.14A176.37,176.37,0,0,1,21.06,259.91a221.14,221.14,0,0,1,88.58,31.83A221.36,221.36,0,0,1,127.45,345.14Z"/><path class="cls-2" d="M216.29,286.46a222.93,222.93,0,0,1-1.83,28.6c3.06-2.75,6.2-5.42,9.41-8A223.91,223.91,0,0,1,354.48,158.3a175,175,0,0,0-24-72.65A223.57,223.57,0,0,0,187.81,177.2,222.43,222.43,0,0,1,216.29,286.46Z"/><path class="cls-3" d="M240.73,291.74a221.15,221.15,0,0,1,88.57-31.83,174.57,174.57,0,0,0,21.07-75.05A224.53,224.53,0,0,0,240.73,291.74Z"/><path class="cls-2" d="M222.92,352.27A176.35,176.35,0,0,0,329.3,267a221.15,221.15,0,0,0-88.57,31.83A220.64,220.64,0,0,0,222.92,352.27Z"/><path class="cls-2" d="M183.15,356.43a23.05,23.05,0,0,1-3.83,13.29,23.47,23.47,0,0,1-3.61-13.12,41.28,41.28,0,0,1,3.51-16.5c.31.59.6,1.21.86,1.83A36.38,36.38,0,0,1,183.15,356.43Z"/></g></g></svg>