<svg xmlns="http://www.w3.org/2000/svg" viewBox="0 0 613.13 621.85"><defs><style>.cls-1{fill:#128a7f;}.cls-2,.cls-5{fill:#52b963;}.cls-3{fill:#065e56;}.cls-4{fill:#789261;}.cls-5{opacity:0.97;}.cls-6{fill:#085d56;}.cls-7{fill:#fff;}.cls-8{fill:#efeeee;}.cls-9{fill:#f3f3f3;}</style></defs><title>Asset 18</title><g id="Layer_2" data-name="Layer 2"><g id="Layer_5" data-name="Layer 5"><path class="cls-1" d="M271.64,415.12c.25,3.51.61,7,1.06,10.45-1.83-1.62-3.68-3.21-5.56-4.75q-1.29-1.06-2.61-2.1c-15.63-58-58-105.09-113.29-127.66a149,149,0,0,1,20.81-62.35A194.12,194.12,0,0,1,295.8,307.25,189.41,189.41,0,0,0,271.11,401Q271.11,408.14,271.64,415.12Z"/><path class="cls-2" d="M245.79,402.5A193,193,0,0,0,169,375.19a148.8,148.8,0,0,1-18.28-64.4A193.76,193.76,0,0,1,245.79,402.5Z"/><path class="cls-1" d="M261.24,454.44A152.62,152.62,0,0,1,169,381.31a193,193,0,0,1,76.82,27.31A187.57,187.57,0,0,1,261.24,454.44Z"/><path class="cls-3" d="M429.61,214.35a152.87,152.87,0,0,0-123.06-65.17h0a152.87,152.87,0,0,0-123,65.21A194.18,194.18,0,0,1,306.55,291v0A194.17,194.17,0,0,1,429.61,214.35Z"/><path class="cls-1" d="M461.88,291c-55.26,22.58-97.63,69.74-113.25,127.69-.66.52-1.31,1-1.95,1.57q-3.17,2.58-6.22,5.29.72-5.4,1.09-10.87.49-6.78.5-13.68a189.33,189.33,0,0,0-24.72-93.76,194.1,194.1,0,0,1,123.72-78.59A148.94,148.94,0,0,1,461.88,291Z"/><path class="cls-1" d="M334.47,413.19c0,.19,0,.39,0,.59-6.21.79-13.42,5.06-19.13,12-4.65,5.6-7.39,11.82-8,17.28v0c-.09.16-.2.33-.3.48l-.29-.44c-.61-5.46-3.36-11.72-8-17.34-5.72-6.9-12.95-11.17-19.16-12,0-.2,0-.4,0-.58-.09-2.42-.1-4.85-.08-7.3,0-.92,0-1.84,0-2.75,0-2.44.14-4.86.28-7.31A189.39,189.39,0,0,1,307,308.44v-.05l0,0v0a189.22,189.22,0,0,1,27.24,87.39c.14,2.45.25,4.87.29,7.31,0,.91,0,1.83,0,2.75C334.57,408.34,334.55,410.77,334.47,413.19Z"/><path class="cls-2" d="M367.37,402.48a193,193,0,0,1,76.81-27.34,148.64,148.64,0,0,0,18.26-64.41A193.78,193.78,0,0,0,367.37,402.48Z"/><path class="cls-1" d="M351.93,454.42a152.62,152.62,0,0,0,92.25-73.15,192.86,192.86,0,0,0-76.81,27.33A188.54,188.54,0,0,0,351.93,454.42Z"/><path class="cls-1" d="M310.9,459.47a24.06,24.06,0,0,1-3.9,13.4,24.14,24.14,0,0,1-3.9-13.4,24.92,24.92,0,0,1,.49-5,23,23,0,0,1,3.24-8.12c.05-.08.11-.18.17-.26a2,2,0,0,1,.19.31h0a22.82,22.82,0,0,1,3.21,8h0A25.22,25.22,0,0,1,310.9,459.47Z"/><path class="cls-4" d="M204.89,584.26a101.8,101.8,0,0,0,2.46,22.3C86.52,563.5,0,448.09,0,312.46a313.13,313.13,0,0,1,10-78.81,94,94,0,0,1,18.44-1.82c20,0,40.7,6.37,55.81,19.89A57.4,57.4,0,0,1,99.65,273.3c4.39,11.19,2.57,22.43,2.87,34.14a222.74,222.74,0,0,0,4.08,36.87c7.86,40.1,26.57,77,55.32,106.12a204.41,204.41,0,0,0,69,46q6.44,2.59,13,4.75c3.17,1,10.17,4.56,13.43,3.88C227.61,511.34,204.89,544.41,204.89,584.26Z"/><path class="cls-1" d="M406,15.52c72.69,26,135,79.88,171.08,148.11l1.14,2.16,1.12,2.18c.37.73.74,1.46,1.1,2.2s.73,1.46,1.09,2.2.71,1.47,1.06,2.21.71,1.47,1,2.22.69,1.48,1,2.22.68,1.49,1,2.24l1,2.24c.33.75.66,1.5,1,2.25l1,2.26c.32.75.63,1.51.94,2.26s.62,1.52.92,2.28.61,1.52.91,2.28.59,1.52.88,2.29.59,1.52.87,2.29.57,1.53.85,2.3.56,1.54.83,2.31.55,1.54.82,2.31.53,1.55.79,2.33.52,1.55.78,2.32.51,1.56.76,2.34.5,1.55.74,2.33l.72,2.35c.24.78.47,1.57.71,2.35s.46,1.57.68,2.36.45,1.57.67,2.36l.65,2.36.63,2.38c.21.79.41,1.58.61,2.37s.4,1.59.59,2.38.39,1.59.58,2.39.37,1.59.56,2.39.36,1.6.53,2.39.35,1.6.52,2.4.34,1.6.5,2.41.33,1.6.49,2.4.31,1.61.46,2.41l.45,2.42.42,2.41c.14.81.28,1.62.41,2.42s.27,1.62.39,2.43.25,1.61.37,2.42l.36,2.43.33,2.43c.11.81.21,1.63.31,2.44s.2,1.62.3,2.43.19,1.63.28,2.44.17,1.63.26,2.44l.24,2.45c.07.81.15,1.63.22,2.44s.14,1.63.2,2.45.13,1.63.18,2.45.12,1.63.17,2.44.1,1.64.14,2.45.09,1.64.13,2.46.08,1.63.11,2.45l.09,2.45c0,.82,0,1.64.07,2.45s0,1.64.05,2.46,0,1.63,0,2.45,0,1.64,0,2.46,0,1.63,0,2.45,0,1.64,0,2.45,0,1.64-.05,2.46,0,1.63-.06,2.45,0,1.64-.08,2.45-.06,1.64-.1,2.46l-.12,2.45c0,.81-.09,1.63-.14,2.45s-.1,1.63-.16,2.44-.11,1.64-.17,2.45-.13,1.63-.2,2.45-.14,1.63-.22,2.44-.15,1.63-.23,2.44-.17,1.63-.25,2.44-.18,1.63-.28,2.44-.19,1.63-.29,2.44-.2,1.62-.31,2.43l-.33,2.43c-.12.81-.23,1.62-.35,2.43s-.25,1.62-.37,2.43l-.39,2.42c-.13.81-.27,1.61-.41,2.42s-.28,1.61-.43,2.41-.29,1.61-.44,2.42-.31,1.6-.47,2.41-.32,1.6-.49,2.4-.33,1.6-.5,2.4-.35,1.6-.53,2.4-.36,1.6-.54,2.39-.37,1.6-.56,2.39-.39,1.59-.59,2.39-.39,1.57-.59,2.36c-.12.46-.21,1-.73,1.13a6.39,6.39,0,0,1-1.14.16l-1.3.15c-.86.1-1.72.19-2.59.27l-2.6.22-2.6.17q-1.31.07-2.61.12l-2.6.07h-2.61c-.87,0-1.74,0-2.61,0s-1.73-.06-2.6-.1-1.73-.1-2.6-.16l-2.58-.22c-.86-.09-1.72-.18-2.58-.29l-2.57-.35c-.86-.13-1.71-.27-2.56-.43s-1.69-.31-2.54-.49-1.68-.36-2.52-.56-1.68-.42-2.51-.64l-2.49-.72c-.82-.25-1.64-.52-2.46-.79s-1.63-.57-2.44-.88l-1-.36c-16.57-6.5-31.14-19.44-36.88-36.29-.29-.85-.55-1.71-.8-2.57s-.47-1.73-.68-2.6-.39-1.75-.55-2.63-.32-1.76-.46-2.65-.25-1.78-.36-2.67-.19-1.79-.27-2.68-.15-1.8-.21-2.7-.11-1.85-.15-2.77-.08-1.88-.11-2.81-.05-1.88-.07-2.82,0-1.88-.05-2.82l0-2.82c0-.94,0-1.88,0-2.81l-.06-2.81c0-.54,0-1.07-.05-1.6a203.2,203.2,0,0,0-154-190.72c20.15-5.17,36.5-21.25,44.77-40.33a96.24,96.24,0,0,0,7.47-39A126.83,126.83,0,0,0,406,15.52"/><path class="cls-5" d="M230.6,590.87a94.83,94.83,0,0,1,.54-9.68,89.59,89.59,0,0,1,1.49-9.35A87.36,87.36,0,0,1,235,563a82.63,82.63,0,0,1,3.21-8.35,79.4,79.4,0,0,1,4-7.73,71.49,71.49,0,0,1,4.68-7,67.27,67.27,0,0,1,5.32-6.25,62.72,62.72,0,0,1,5.89-5.4,56.85,56.85,0,0,1,6.41-4.46,53,53,0,0,1,6.86-3.45,49.89,49.89,0,0,1,7.25-2.36c7.59-1.83,15.59-1.29,23.32-1.18a221.84,221.84,0,0,0,24.32-1,205.07,205.07,0,0,0,45.57-9.58l1.16-.39a204.33,204.33,0,0,0,61-33.41,205.32,205.32,0,0,0,46.09-51.46,203.76,203.76,0,0,0,16-31.09q2.65-6.45,4.86-13.09,1.11-3.37,2.12-6.78c.33-1.14.66-2.29,1-3.43.21-.78,1.05-2.52.87-3.28,6.11,29.8,39.06,52.69,78.91,52.87a102.19,102.19,0,0,0,11-.54C551.48,535.84,436.36,621.82,301.14,621.85a314,314,0,0,1-67.63-7.33A92.88,92.88,0,0,1,230.6,590.87Z"/><path class="cls-6" d="M382.79,31q0,4.86-.54,9.69A91.68,91.68,0,0,1,380.76,50a88.3,88.3,0,0,1-2.39,8.89,83.55,83.55,0,0,1-3.21,8.35,80.31,80.31,0,0,1-4,7.72,75.25,75.25,0,0,1-4.68,7,67.5,67.5,0,0,1-5.32,6.25,61.5,61.5,0,0,1-5.9,5.4,55.58,55.58,0,0,1-6.41,4.46,50.59,50.59,0,0,1-6.86,3.45,47.45,47.45,0,0,1-7.24,2.36c-7.59,1.83-15.59,1.3-23.32,1.19a221.83,221.83,0,0,0-24.32,1,205.73,205.73,0,0,0-45.58,9.59l-1.16.39a204,204,0,0,0-61.05,33.4,205.49,205.49,0,0,0-46.08,51.46,204.28,204.28,0,0,0-16,31.09q-2.64,6.47-4.85,13.09c-.75,2.25-1.45,4.51-2.12,6.79-.34,1.14-.66,2.28-1,3.43-.21.77-1,2.51-.87,3.28-6.1-29.81-39.06-52.69-78.91-52.87a102.13,102.13,0,0,0-11,.54C61.91,86,177,0,312.25,0a313.23,313.23,0,0,1,67.62,7.33A92.8,92.8,0,0,1,382.79,31Z"/><path class="cls-7" d="M305.13,25.09a10.31,10.31,0,1,0,10.15,10.3,10.24,10.24,0,0,0-10.15-10.3"/><path class="cls-7" d="M305.13,42.15a6.75,6.75,0,1,1,6.65-6.76A6.71,6.71,0,0,1,305.13,42.15Z"/><path class="cls-7" d="M325.67,32.67a6.52,6.52,0,1,0,6.42,6.51A6.47,6.47,0,0,0,325.67,32.67Zm0,9.48a3,3,0,1,1,2.92-3A3,3,0,0,1,325.67,42.15Z"/><path class="cls-7" d="M327.08,49.73h-2.7a7.92,7.92,0,0,0-7.2,4.66,14,14,0,0,0-10.42-4.66H303.5a14,14,0,0,0-10.41,4.67,7.94,7.94,0,0,0-7.2-4.67h-2.72a8,8,0,0,0-7.92,8V70.67a3.45,3.45,0,0,0,3.43,3.47h10.7a4.13,4.13,0,0,0,4.08,3.79H316.8a4.13,4.13,0,0,0,4.08-3.79h10.58A3.57,3.57,0,0,0,335,70.54V57.72A8,8,0,0,0,327.08,49.73Zm-36.77,9.21c-1.18,3.12-.93,5-.93,11.64H278.75V57.73a4.44,4.44,0,0,1,4.42-4.44h2.72a4.43,4.43,0,0,1,4.42,4.44Zm27.08,14.84a.6.6,0,0,1-.59.59H293.47a.58.58,0,0,1-.59-.59V64.07A10.71,10.71,0,0,1,303.5,53.29h3.26a10.71,10.71,0,0,1,10.63,10.77Zm3.5-3.2c0-6.71.24-8.54-.93-11.64V57.72a4.43,4.43,0,0,1,4.42-4.44h2.7a4.44,4.44,0,0,1,4.43,4.44V70.54C331.51,70.6,332.16,70.57,320.89,70.58Z"/><path class="cls-7" d="M284.59,32.67A6.52,6.52,0,1,0,291,39.19,6.47,6.47,0,0,0,284.59,32.67Zm0,9.48a3,3,0,1,1,2.92-3A2.94,2.94,0,0,1,284.59,42.15Z"/><path class="cls-7" d="M540.56,430.26H535v-2.48c0-.8-.87-1.16-1.68-1.16h-4.28a6.52,6.52,0,0,0-6.48-4.36,6.6,6.6,0,0,0-6.47,4.36H511.9c-.81,0-1.6.37-1.6,1.16v2.48h-5.53a6.19,6.19,0,0,0-6.11,5.89v41.68c0,3.2,2.91,5.53,6.11,5.53h35.79c3.2,0,6.1-2.33,6.1-5.53V436.15A6.19,6.19,0,0,0,540.56,430.26Zm-27.35-.72h4a1.61,1.61,0,0,0,1.38-1.31,4.22,4.22,0,0,1,4-3.27,4.14,4.14,0,0,1,3.93,3.27,1.61,1.61,0,0,0,1.45,1.31h4.15v5.82H513.21Zm30.55,48.29c0,1.6-1.59,2.62-3.19,2.62H504.78c-1.6,0-3.2-1-3.2-2.62V436.16a3.28,3.28,0,0,1,3.2-3h5.53v3.7a1.53,1.53,0,0,0,1.6,1.39h21.46a1.61,1.61,0,0,0,1.67-1.39v-3.71h5.53a3.28,3.28,0,0,1,3.2,3Z"/><path class="cls-7" d="M517.07,454.78a1.45,1.45,0,0,0-2-.07l-4.65,4.43-2-2a1.44,1.44,0,0,0-2-.07,1.5,1.5,0,0,0,0,2.1l3,3.06a1.32,1.32,0,0,0,1,.44,1.47,1.47,0,0,0,1-.44l5.68-5.38a1.39,1.39,0,0,0,.08-2Z"/><path class="cls-7" d="M537.94,457.9H521.21a1.46,1.46,0,0,0,0,2.91h16.73a1.46,1.46,0,1,0,0-2.91Z"/><path class="cls-7" d="M517.07,443.14a1.46,1.46,0,0,0-2-.07l-4.66,4.44-2-2a1.45,1.45,0,0,0-2-.07,1.54,1.54,0,0,0,0,2.11l3,3.05a1.3,1.3,0,0,0,1,.44,1.45,1.45,0,0,0,1-.44l5.68-5.38a1.39,1.39,0,0,0,.08-1.95Z"/><path class="cls-7" d="M537.94,446.26H521.21a1.46,1.46,0,0,0,0,2.91h16.73a1.46,1.46,0,1,0,0-2.91Z"/><path class="cls-7" d="M517.07,466.42a1.46,1.46,0,0,0-2-.08l-4.65,4.44-2-2a1.45,1.45,0,0,0-2-.08,1.52,1.52,0,0,0,0,2.11l3,3.06a1.28,1.28,0,0,0,1,.43,1.46,1.46,0,0,0,1-.43l5.67-5.39a1.38,1.38,0,0,0,.08-1.95Z"/><path class="cls-7" d="M537.94,469.54H521.22a1.46,1.46,0,1,0,0,2.91H538a1.46,1.46,0,0,0,0-2.91Z"/><g id="surface1"><path class="cls-7" d="M80.86,297.3l-3.47,0-1.87-27.59a1.08,1.08,0,0,0-1.12-.93l-6.77-.07a1.08,1.08,0,0,0-1.14.9L64,297.13l-2.33,0,.06-5.89a1.07,1.07,0,0,0-1.12-1,1.31,1.31,0,0,0-.7.21l-9.53,6.49.06-5.82a1.06,1.06,0,0,0-1.11-1,1.32,1.32,0,0,0-.71.21l-9.54,6.49.07-5.82A1.06,1.06,0,0,0,38,290a1.16,1.16,0,0,0-.7.21l-9.53,6.49.06-5.82a1.06,1.06,0,0,0-1.11-1,1.31,1.31,0,0,0-.59.14l-11.35,5.78a1,1,0,0,0-.56.83L14,320.19a1.06,1.06,0,0,0,1.11,1l65.48.67a1.08,1.08,0,0,0,1.15-1l.25-22.6A1.06,1.06,0,0,0,80.86,297.3Zm-12.2-26.66,4.66.05,1.82,26.55-8.88-.09Zm-9.5,49-6.78-.08.14-11.79,6.77.08Zm20.32.21-18.07-.19.15-12.77a1.07,1.07,0,0,0-1.12-1l-9-.09a1.06,1.06,0,0,0-1.14,1l-.14,12.77-33.87-.35.24-22,9.09-4.63-.08,6.13a1.07,1.07,0,0,0,1.13,1,1.28,1.28,0,0,0,.71-.21L36.87,293l-.06,5.82a1.06,1.06,0,0,0,1.11,1,1.24,1.24,0,0,0,.71-.21l9.53-6.49-.06,5.82a1.06,1.06,0,0,0,1.12,1,1.23,1.23,0,0,0,.7-.21l9.53-6.48-.05,4.83a1.07,1.07,0,0,0,1.12,1l19.19.19Z"/><path class="cls-7" d="M53,264.59a4.15,4.15,0,0,1,1.09.75,4.11,4.11,0,0,0,2.51,1.25,4.29,4.29,0,0,0,2.67-1.25,5.53,5.53,0,0,1,1-.68,4.18,4.18,0,0,1,1.16.79,4,4,0,0,0,2.43,1.22,4.67,4.67,0,0,0,2.85-1.33c.28-.22.7-.56.79-.6.6,0,.74.18,1.11.65A2.93,2.93,0,0,0,71,266.74a1,1,0,1,0,0-2c-.23,0-.27,0-.63-.49a3.48,3.48,0,0,0-3-1.52,3.78,3.78,0,0,0-2.34,1.12,4.23,4.23,0,0,1-1.25.82,4.61,4.61,0,0,1-.94-.68,4.38,4.38,0,0,0-2.7-1.33,4.07,4.07,0,0,0-2.51,1.19,4.87,4.87,0,0,1-1.09.74,4.07,4.07,0,0,1-1-.71,4.27,4.27,0,0,0-2.61-1.3,1.08,1.08,0,0,0-1.15,1A1.07,1.07,0,0,0,53,264.59Z"/><path class="cls-7" d="M26.55,307.55,22,307.5a1.07,1.07,0,0,0-1.14,1l-.06,5.9a1.06,1.06,0,0,0,1.11,1l4.52,0a1.06,1.06,0,0,0,1.14-1l.07-5.89A1.06,1.06,0,0,0,26.55,307.55Zm-1.2,5.88-2.25,0,0-3.93,2.26,0Z"/><path class="cls-7" d="M35.58,307.64l-4.52,0a1.06,1.06,0,0,0-1.14,1l-.06,5.89a1.06,1.06,0,0,0,1.11,1l4.52.05a1.06,1.06,0,0,0,1.14-1l.07-5.89A1.06,1.06,0,0,0,35.58,307.64Zm-1.2,5.89-2.25,0,0-3.93,2.26,0Z"/><path class="cls-7" d="M44.61,307.74l-4.51-.05a1.07,1.07,0,0,0-1.15,1l-.06,5.89a1.06,1.06,0,0,0,1.12,1l4.51,0a1.07,1.07,0,0,0,1.15-1l.06-5.89A1.05,1.05,0,0,0,44.61,307.74Zm-1.19,5.88-2.26,0,0-3.94,2.26,0Z"/></g><path class="cls-8" d="M93.26,136.81A32,32,0,0,0,63.88,156.2l-.4.13.15.47a32,32,0,1,0,29.63-20Zm20.67,10.5-1.73,1.15-4.83-1-3.13-1a1.08,1.08,0,0,0-.59,0l-4,1L98,146.84l1.28-2.58h3.61a1,1,0,0,0,.47-.11l3.69-1.84A29.69,29.69,0,0,1,113.93,147.31Zm-32.35-6L84.14,143a1.21,1.21,0,0,0,.41.16l5.17.86-.5,1.51-2.7.9a1.07,1.07,0,0,0-.57.46L82.89,152,78,155l-7.25,1a1.07,1.07,0,0,0-.91,1.06v3.19a1.07,1.07,0,0,0,.31.76L72,162.83v1.83l-4.44-2.95-1.6-4.83A30,30,0,0,1,81.58,141.32Zm-3,34.94-4.82-1L72,171.72v-2.5l4-4,1.47,2.94a1,1,0,0,0,1,.58H85.2l2.88,4.82a1.06,1.06,0,0,0,.91.51h3l-.75,3.74-4,4a1.1,1.1,0,0,0-.31.76v2.67L83,188.17a1.06,1.06,0,0,0-.42.85v3.85l-1.33-.44-1.87-4.68V177.3A1.05,1.05,0,0,0,78.56,176.26Zm-3.18,16.36A29.92,29.92,0,0,1,64.73,160l.89,2.67a1,1,0,0,0,.42.54l5.32,3.55L70.15,168a1.07,1.07,0,0,0-.32.75v3.21a1.21,1.21,0,0,0,.12.48l2.14,4.27a1,1,0,0,0,.74.56l4.48.91v9.8a1,1,0,0,0,.08.4l2.13,5.33a1.07,1.07,0,0,0,.66.62l3.2,1.07a.92.92,0,0,0,.33.06,1.06,1.06,0,0,0,1.07-1.07v-4.81l3.85-2.88a1.09,1.09,0,0,0,.42-.86V183l4-4a1.05,1.05,0,0,0,.29-.55l1.07-5.34a1.06,1.06,0,0,0-.84-1.25.76.76,0,0,0-.21,0H89.67l-2.9-4.82a1.07,1.07,0,0,0-.92-.51H79l-1.84-3.69a1,1,0,0,0-.78-.57,1,1,0,0,0-.92.3L74.11,164V162.3a1.07,1.07,0,0,0-.32-.76L72,159.72v-1.84l6.56-.94a1,1,0,0,0,.41-.15l5.33-3.2a.92.92,0,0,0,.37-.36l3-5,2.83-.95a1,1,0,0,0,.67-.68l1.07-3.2a1.06,1.06,0,0,0-.68-1.35l-.15,0-6.19-1-1.08-.72a29.72,29.72,0,0,1,20.53.76l-1.94,1h-4a1.05,1.05,0,0,0-1,.6l-2.14,4.27a1.07,1.07,0,0,0,.48,1.43.39.39,0,0,0,.14.05l3.2,1.07a1,1,0,0,0,.6,0l4-1,2.91,1,.13,0,5.34,1.06a1,1,0,0,0,.8-.15l2.43-1.63a30.69,30.69,0,0,1,3.22,4.3l-5.26,1.75-5.69-.95L106,151a1.06,1.06,0,0,0-.89-.47h-6.4a1.08,1.08,0,0,0-.76.31l-3.2,3.2a1.08,1.08,0,0,0-.3.92l1.07,7.47a1.05,1.05,0,0,0,.64.83l7.48,3.2a1,1,0,0,0,.67.06l3.82-.95,2.33,1.56v3.69a1,1,0,0,0,.1.48l4.17,8.32v4a1,1,0,0,0,.31.76l2.23,2.23A29.9,29.9,0,0,1,75.38,192.62Zm41.31-9.37v-3.83a1,1,0,0,0-.11-.47l-4.15-8.3v-4a1,1,0,0,0-.47-.88l-3.2-2.14a1.08,1.08,0,0,0-.86-.14l-3.91,1-6.57-2.81-.9-6.34,2.5-2.5h5.38l1.81,2.72a1.06,1.06,0,0,0,.72.46l6.38,1.07a1.24,1.24,0,0,0,.51,0l5.9-2a29.72,29.72,0,0,1-1.38,29.85Z"/><path class="cls-7" d="M473.08,115.17l-6-12.82,0,0,0,0L465,98a1.15,1.15,0,0,0-1.59-.56,1.28,1.28,0,0,0-.53,1.67l1.49,3.2-5,2.62a1.26,1.26,0,0,0-.58.66,8.92,8.92,0,0,1-4.15,4.71,8.19,8.19,0,0,1-6.07.63,1.14,1.14,0,0,0-.83.08l-5,2.63-7.2-15.39,5-2.62a1.3,1.3,0,0,0,.57-.65,8.89,8.89,0,0,1,4.15-4.71,8.13,8.13,0,0,1,6.07-.63,1.17,1.17,0,0,0,.84-.09l5-2.62.93,2a1.21,1.21,0,0,0,.69.63,1.12,1.12,0,0,0,.91-.06,1.27,1.27,0,0,0,.53-1.68l-1.46-3.13L457,80.83c-2.75-5.89-6.79-7-9.74-7.9-1.74-.5-2.76-.82-3.14-1.65l-.95-2,.11-.06a1.28,1.28,0,0,0,.61-.72,1.38,1.38,0,0,0-.07-1l-2.3-4.93A4.37,4.37,0,0,0,439,60.29a4.07,4.07,0,0,0-3.29.23l-7,3.67a4.43,4.43,0,0,0-2.16,2.62,4.68,4.68,0,0,0,.21,3.47l2.3,4.93a1.18,1.18,0,0,0,1.06.71,1.1,1.1,0,0,0,.53-.14l.12-.06.95,2c.39.83,0,1.87-.67,3.65-1.15,3-2.73,7.07,0,13l1.8,3.84,8.23,17.6s0,0,0,0l0,0,6,12.82a6.82,6.82,0,0,0,3.84,3.57,6.56,6.56,0,0,0,8-3.37,6.61,6.61,0,0,0,7-3.64,6.67,6.67,0,0,0,7.41-4.7A7.44,7.44,0,0,0,473.08,115.17ZM430.69,73l-1.78-3.81a2.1,2.1,0,0,1-.1-1.56,2,2,0,0,1,1-1.18l7-3.66a1.76,1.76,0,0,1,1.47-.1,1.91,1.91,0,0,1,1.12,1l1.79,3.81Zm2.53,20.28c-2.29-4.88-1-8.09,0-10.92.75-2,1.47-3.82.59-5.7l-.95-2,8.14-4.25,1,2c.88,1.88,2.7,2.41,4.64,3,2.79.8,6,1.71,8.24,6.59l1.27,2.71-4.63,2.42a10.4,10.4,0,0,0-7.29.92,11.26,11.26,0,0,0-5.12,5.57L434.49,96Zm37.95,26.49a4.32,4.32,0,0,1-4.43,3.08,7.28,7.28,0,0,0-.64-4,1.15,1.15,0,0,0-1.58-.58,1.29,1.29,0,0,0-.54,1.68,4.76,4.76,0,0,1,.22,3.48,4.23,4.23,0,0,1-7.95.56,1.15,1.15,0,0,0-1.59-.56,1.28,1.28,0,0,0-.54,1.67,6.87,6.87,0,0,0,2.65,3,4.19,4.19,0,0,1-5,1.85,4.36,4.36,0,0,1-2.49-2.3l-5.49-11.74,4.63-2.42a10.46,10.46,0,0,0,7.29-.91,11.39,11.39,0,0,0,5.12-5.57l4.63-2.41L471,116.27A4.76,4.76,0,0,1,471.17,119.75Z"/><path class="cls-7" d="M454.61,94a1.16,1.16,0,0,0-1.59-.57l-9.85,5.15a1.29,1.29,0,0,0-.54,1.68,1.16,1.16,0,0,0,1.59.57l9.85-5.15A1.29,1.29,0,0,0,454.61,94Z"/><path class="cls-7" d="M455.55,98.83,445.69,104a1.3,1.3,0,0,0-.54,1.68,1.21,1.21,0,0,0,.69.63,1.14,1.14,0,0,0,.9-.06l9.86-5.15a1.3,1.3,0,0,0,.54-1.68A1.17,1.17,0,0,0,455.55,98.83Z"/><path class="cls-7" d="M460.44,94a1.21,1.21,0,0,0,.68.62,1.12,1.12,0,0,0,.91-.06,1.29,1.29,0,0,0,.53-1.68,1.16,1.16,0,0,0-1.59-.57,1.29,1.29,0,0,0-.53,1.68Z"/><path class="cls-9" d="M198.93,510.78h-.2l-.95-4.71a1.11,1.11,0,0,0-1.1-.9H181v-.59a5.65,5.65,0,0,0-3.11-5l-4-2a3.42,3.42,0,0,1-1.86-3V483.84a1.13,1.13,0,0,0-1.12-1.12h-9a1.13,1.13,0,0,0-1.12,1.13v10.7a3.4,3.4,0,0,1-1.86,3l-4,2a5.66,5.66,0,0,0-3.1,5v1.87l-.15-.07a3.48,3.48,0,0,1-1.53-1.21,3.61,3.61,0,0,1-.57-1.89V492.83a1.12,1.12,0,0,0-1.13-1.12h-9a1.11,1.11,0,0,0-1.12,1.13v10.45a3.36,3.36,0,0,1-2.1,3.09,5.6,5.6,0,0,0-3.52,5.2v35.15a3.36,3.36,0,0,0,3.37,3.36h15.71a3.25,3.25,0,0,0,1.7-.47,3.32,3.32,0,0,0,1.67.47h40.43a1.12,1.12,0,0,0,1.12-1l2.09-30.39h.15a1.13,1.13,0,0,0,1.12-1.13v-5.61A1.13,1.13,0,0,0,198.93,510.78Zm-3.17-3.36.68,3.36H172.23l.67-3.37ZM154,504.58a3.39,3.39,0,0,1,1.87-3l4-2a5.69,5.69,0,0,0,3.1-5V485h6.74v9.58a5.73,5.73,0,0,0,3.1,5l4,2a3.41,3.41,0,0,1,1.87,3v.59H172a1.12,1.12,0,0,0-1.1.91l-.94,4.71H155.08a5.64,5.64,0,0,0-1.07-2.53Zm14.6,8.46v3.53a18.91,18.91,0,0,0-2.25-.16,16.77,16.77,0,0,0-11.23,4.33V513ZM152.9,546.72a1.12,1.12,0,0,1-1.13,1.13H136.06a1.11,1.11,0,0,1-1.12-1.12V511.58a3.44,3.44,0,0,1,.56-1.87,3.49,3.49,0,0,1,1.53-1.24,5.64,5.64,0,0,0,3.53-5.19V494h6.73v9.32a5.68,5.68,0,0,0,1,3.15,5.58,5.58,0,0,0,2.56,2,3.35,3.35,0,0,1,2.09,3.1v11.62a16.7,16.7,0,0,0,0,20.12Zm2.24,1.13-.18-.05a3.22,3.22,0,0,0,.18-1.08v-.94a16.69,16.69,0,0,0,2.87,2.06ZM168.62,540a10.13,10.13,0,0,0,10.11-10.1,1.12,1.12,0,0,0-1.13-1.12h-2.24a10.08,10.08,0,0,0-8.44,4.55,10.09,10.09,0,0,0-9.53-6.79h-2.25a1.11,1.11,0,0,0-1.12,1.12,10.11,10.11,0,0,0,10.11,10.1h1.12v10.06a14.6,14.6,0,1,1,2.25,0V540Zm-1.05-2.25a7.87,7.87,0,0,1,7.79-6.72h1a7.86,7.86,0,0,1-7.78,6.72Zm-2.4-2.23h-1a7.89,7.89,0,0,1-7.79-6.74h1A7.86,7.86,0,0,1,165.17,535.5Zm29.35,12.34H174.74a16.85,16.85,0,0,0,6.52-6.74H195Zm.61-9h-12.9a16.59,16.59,0,0,0-.43-12.35H196Zm1-14.59H180.6a17,17,0,0,0-5.86-5.62h21.79Zm1.68-7.86H170.86V513h26.95Z"/><path class="cls-9" d="M571,287.9l-1.45-1.76-1.45,1.76c-7.27,8.84-24.11,31.85-24.11,44.8,0,15.76,11.46,28.58,25.55,28.58s25.56-12.82,25.56-28.58C595.12,319.78,578.26,296.71,571,287.9Zm-1.46,69c-11.92,0-21.62-10.85-21.62-24.18,0-10.93,15.13-31.73,21.63-40,6.49,8.28,21.62,29.09,21.62,40C591.19,346,581.49,356.88,569.56,356.88Z"/><path class="cls-9" d="M565.64,308.51c-3.26,0-5.9,3-5.9,6.6s2.64,6.6,5.9,6.6,5.89-3,5.89-6.6S568.89,308.51,565.64,308.51Zm0,8.8a2.21,2.21,0,1,1,2-2.2A2.1,2.1,0,0,1,565.64,317.31Z"/><path class="cls-9" d="M579.4,337.1a7.9,7.9,0,0,0-.1-1.21l3.7-2.39-2-3.8-3.7,2.38a5.84,5.84,0,0,0-1.87-1.21V326.1h-3.93v4.77a5.69,5.69,0,0,0-1.86,1.21L566,329.7l-2,3.8,3.69,2.39a6.81,6.81,0,0,0-.1,1.21,6.67,6.67,0,0,0,.1,1.19l-3.7,2.4,2,3.81,3.7-2.4a5.69,5.69,0,0,0,1.86,1.21v4.78h3.93v-4.78a5.84,5.84,0,0,0,1.87-1.21l3.7,2.4,2-3.81-3.7-2.4A7.74,7.74,0,0,0,579.4,337.1Zm-5.9,2.19a2.21,2.21,0,1,1,2-2.19A2.1,2.1,0,0,1,573.5,339.29Z"/><path class="cls-9" d="M555.8,339.29h3.94v4.4H555.8Z"/><path class="cls-9" d="M575.46,317.31h3.94v4.39h-3.94Z"/><path class="cls-9" d="M555.8,326.1h3.94v4.4H555.8Z"/><path class="cls-9" d="M326.84,592.48h0a1.45,1.45,0,1,1-1.28,1.42A1.36,1.36,0,0,1,326.85,592.48Z"/><path class="cls-9" d="M316.15,592.28h0a1.37,1.37,0,0,1,1.23,1.47,1.27,1.27,0,1,1-1.24-1.47Z"/><path class="cls-9" d="M272.06,591.47h0a1.36,1.36,0,0,1,1.22,1.47,1.34,1.34,0,0,1-1.27,1.41,1.45,1.45,0,0,1,0-2.88Z"/><path class="cls-9" d="M340.81,549.62l-61.47-1.13a2.79,2.79,0,0,0-2.62,2.93l-.09,6.26-12.11-.22a1.34,1.34,0,0,0-1.27,1.42,1.47,1.47,0,0,0,.86,1.39l-3.55,11.63-1.71,1.9a4.9,4.9,0,0,0-1.2,3.18l-.17,12.59a2.83,2.83,0,0,0,2.55,3l5.43.1v.09c-.06,4.19,2.85,7.64,6.48,7.72,3.21.06,5.93-2.53,6.56-6l31.15.56c.53,3.52,3.18,6.21,6.38,6.28a6.36,6.36,0,0,0,5.41-3.06,6.36,6.36,0,0,0,5.28,3.25c3.21.06,5.93-2.54,6.58-6l2.86,0a2.8,2.8,0,0,0,2.63-2.93l0-3.18h1.41a2.77,2.77,0,0,0,2.63-2.93l.48-33.86A2.83,2.83,0,0,0,340.81,549.62ZM264.86,566.5l6.3.12-.09,6.26a.07.07,0,0,1-.09.08l-8.06-.14ZM272,597.63c-2.25,0-4.06-2.19-4-4.79s1.9-4.68,4.15-4.64h0c2.25.07,4,2.2,4,4.8S274.24,597.67,272,597.63Zm4.26-12.23-4.09-.09a6.64,6.64,0,0,0-6.13,4.5l-6-.1s-.09-.05-.08-.09l.08-6.27,1.43,0a1.36,1.36,0,0,0,1.28-1.41,1.39,1.39,0,0,0-1.24-1.48l-1.43,0,.06-3.43a1.75,1.75,0,0,1,.43-1.16l.19-.21,10.17.19a2.78,2.78,0,0,0,2.62-2.93l.11-7.7a1.36,1.36,0,0,0-1.23-1.46l-6.73-.12,1-3.26,9.78.18s.08,0,.08.1Zm44,8.4c0,2.6-1.9,4.68-4.17,4.64s-4.06-2.19-4-4.79,1.9-4.66,4.14-4.64h.05C318.48,589.07,320.27,591.2,320.24,593.8Zm6.52,4.83c-2.25,0-4.06-2.18-4-4.78s1.89-4.67,4.15-4.65h0c2.26.07,4,2.21,4,4.8S329,598.68,326.76,598.63Zm9.53-6.07a.08.08,0,0,1-.08.09l-2.88,0a8.11,8.11,0,0,0-1.27-3.31l4.28.09Zm4.1-6.1a.1.1,0,0,1-.1.11l-53.44-1a1.46,1.46,0,0,0,0,2.89l24.23.44a8.23,8.23,0,0,0-1.35,3.24l-31.15-.56a8.2,8.2,0,0,0-1.26-3.3l4.19.08a1.33,1.33,0,0,0,1.26-1.41,1.35,1.35,0,0,0-1.22-1.47l-2.76,0,.47-34c0-.06,0-.11.08-.11l61.47,1.14s.09,0,.09.1Z"/><path class="cls-9" d="M282.93,579.35l53.45,1a1.45,1.45,0,0,1,0,2.88l-53.45-1a1.45,1.45,0,0,1,0-2.88Z"/></g></g></svg>